<svg xmlns="http://www.w3.org/2000/svg" xmlns:xlink="http://www.w3.org/1999/xlink" viewBox="0 0 395.4 400.06"><defs><style>.cls-1,.cls-80,.cls-81{fill:none;}.cls-2{fill:url(#linear-gradient);}.cls-3{fill:url(#linear-gradient-2);}.cls-4{fill:url(#linear-gradient-3);}.cls-5{fill:url(#linear-gradient-4);}.cls-6{fill:url(#linear-gradient-5);}.cls-7{fill:url(#linear-gradient-6);}.cls-8{fill:url(#linear-gradient-7);}.cls-9{fill:url(#linear-gradient-8);}.cls-10{fill:url(#linear-gradient-9);}.cls-11{fill:url(#linear-gradient-10);}.cls-12{fill:url(#linear-gradient-11);}.cls-13{fill:url(#linear-gradient-12);}.cls-14{fill:url(#linear-gradient-13);}.cls-15{fill:url(#linear-gradient-14);}.cls-16{fill:url(#linear-gradient-15);}.cls-17{fill:url(#linear-gradient-16);}.cls-18{fill:url(#linear-gradient-17);}.cls-19{fill:url(#linear-gradient-18);}.cls-20{fill:url(#linear-gradient-19);}.cls-21{fill:url(#linear-gradient-20);}.cls-22{fill:url(#linear-gradient-21);}.cls-23{fill:url(#linear-gradient-22);}.cls-24{fill:url(#linear-gradient-23);}.cls-25{fill:url(#linear-gradient-24);}.cls-26{fill:url(#linear-gradient-25);}.cls-27{fill:url(#linear-gradient-26);}.cls-28{fill:url(#linear-gradient-27);}.cls-29{fill:url(#linear-gradient-28);}.cls-30{fill:url(#linear-gradient-29);}.cls-31{fill:url(#linear-gradient-30);}.cls-32{fill:url(#linear-gradient-31);}.cls-33{fill:url(#linear-gradient-32);}.cls-34{fill:url(#linear-gradient-33);}.cls-35{fill:url(#linear-gradient-34);}.cls-36{fill:url(#linear-gradient-35);}.cls-37{fill:url(#linear-gradient-36);}.cls-38{fill:url(#linear-gradient-37);}.cls-39{fill:url(#linear-gradient-38);}.cls-40{fill:url(#linear-gradient-39);}.cls-41{fill:url(#linear-gradient-40);}.cls-42{fill:url(#linear-gradient-41);}.cls-43{fill:url(#linear-gradient-42);}.cls-44{fill:url(#linear-gradient-43);}.cls-45{fill:url(#linear-gradient-44);}.cls-46{fill:url(#linear-gradient-45);}.cls-47{fill:url(#linear-gradient-46);}.cls-48{fill:url(#linear-gradient-47);}.cls-49{fill:url(#linear-gradient-48);}.cls-50{fill:url(#linear-gradient-49);}.cls-51{fill:url(#linear-gradient-50);}.cls-52{fill:url(#linear-gradient-51);}.cls-53{fill:url(#linear-gradient-52);}.cls-54{fill:url(#linear-gradient-53);}.cls-55{fill:url(#linear-gradient-54);}.cls-56{fill:url(#linear-gradient-55);}.cls-57{fill:url(#linear-gradient-56);}.cls-58{fill:url(#linear-gradient-57);}.cls-59{fill:url(#linear-gradient-58);}.cls-60{fill:url(#linear-gradient-59);}.cls-61{fill:url(#linear-gradient-60);}.cls-62{fill:url(#linear-gradient-61);}.cls-63{fill:url(#linear-gradient-62);}.cls-64{fill:url(#linear-gradient-63);}.cls-65{fill:url(#linear-gradient-64);}.cls-66{fill:url(#linear-gradient-65);}.cls-67{fill:url(#linear-gradient-66);}.cls-68{fill:url(#linear-gradient-67);}.cls-69{fill:url(#linear-gradient-68);}.cls-70{fill:url(#linear-gradient-69);}.cls-71{fill:url(#linear-gradient-70);}.cls-72{fill:url(#linear-gradient-71);}.cls-73{fill:url(#linear-gradient-72);}.cls-74{fill:url(#linear-gradient-73);}.cls-75{fill:url(#linear-gradient-74);}.cls-76{fill:url(#linear-gradient-75);}.cls-77{fill:url(#linear-gradient-76);}.cls-78{fill:url(#linear-gradient-77);}.cls-79{fill:#fff;stroke:#221e1f;stroke-width:4px;}.cls-79,.cls-80,.cls-81{stroke-miterlimit:10;}.cls-80,.cls-81{stroke-width:6.07px;}.cls-80{stroke:url(#linear-gradient-78);}.cls-81{stroke:url(#linear-gradient-79);}</style><linearGradient id="linear-gradient" x1="98.5" y1="19.77" x2="98.5" y2="306.52" gradientUnits="userSpaceOnUse"><stop offset="0" stop-color="#fc0201"/><stop offset="0.2" stop-color="#f5872e"/><stop offset="0.4" stop-color="#e8aa00"/><stop offset="0.6" stop-color="#7cde00"/><stop offset="0.8" stop-color="#0260f2"/><stop offset="1" stop-color="#750dfa"/></linearGradient><linearGradient id="linear-gradient-2" x1="95.39" y1="23.24" x2="95.39" y2="309.99" xlink:href="#linear-gradient"/><linearGradient id="linear-gradient-3" x1="90.4" y1="26.71" x2="90.4" y2="313.46" xlink:href="#linear-gradient"/><linearGradient id="linear-gradient-4" x1="77.52" y1="30.18" x2="77.52" y2="316.93" xlink:href="#linear-gradient"/><linearGradient id="linear-gradient-5" x1="59.29" y1="33.65" x2="59.29" y2="320.4" xlink:href="#linear-gradient"/><linearGradient id="linear-gradient-6" x1="59.29" y1="37.12" x2="59.29" y2="323.87" xlink:href="#linear-gradient"/><linearGradient id="linear-gradient-7" x1="59.29" y1="40.58" x2="59.29" y2="327.34" xlink:href="#linear-gradient"/><linearGradient id="linear-gradient-8" x1="59.29" y1="44.05" x2="59.29" y2="330.81" xlink:href="#linear-gradient"/><linearGradient id="linear-gradient-9" x1="89.59" y1="47.52" x2="89.59" y2="334.28" xlink:href="#linear-gradient"/><linearGradient id="linear-gradient-10" x1="89.59" y1="50.99" x2="89.59" y2="337.75" xlink:href="#linear-gradient"/><linearGradient id="linear-gradient-11" x1="89.59" y1="54.46" x2="89.59" y2="341.21" xlink:href="#linear-gradient"/><linearGradient id="linear-gradient-12" x1="89.59" y1="57.93" x2="89.59" y2="344.68" xlink:href="#linear-gradient"/><linearGradient id="linear-gradient-13" x1="89.59" y1="61.4" x2="89.59" y2="348.15" xlink:href="#linear-gradient"/><linearGradient id="linear-gradient-14" x1="89.59" y1="64.87" x2="89.59" y2="351.62" xlink:href="#linear-gradient"/><linearGradient id="linear-gradient-15" x1="89.59" y1="68.34" x2="89.59" y2="355.09" xlink:href="#linear-gradient"/><linearGradient id="linear-gradient-16" x1="89.59" y1="71.81" x2="89.59" y2="358.56" xlink:href="#linear-gradient"/><linearGradient id="linear-gradient-17" x1="89.59" y1="75.28" x2="89.59" y2="362.03" xlink:href="#linear-gradient"/><linearGradient id="linear-gradient-18" x1="89.59" y1="78.75" x2="89.59" y2="365.5" xlink:href="#linear-gradient"/><linearGradient id="linear-gradient-19" x1="89.59" y1="82.22" x2="89.59" y2="368.97" xlink:href="#linear-gradient"/><linearGradient id="linear-gradient-20" x1="89.59" y1="85.69" x2="89.59" y2="372.44" xlink:href="#linear-gradient"/><linearGradient id="linear-gradient-21" x1="89.59" y1="89.16" x2="89.59" y2="375.91" xlink:href="#linear-gradient"/><linearGradient id="linear-gradient-22" x1="89.59" y1="92.63" x2="89.59" y2="379.38" xlink:href="#linear-gradient"/><linearGradient id="linear-gradient-23" x1="89.59" y1="96.09" x2="89.59" y2="382.85" xlink:href="#linear-gradient"/><linearGradient id="linear-gradient-24" x1="89.59" y1="99.56" x2="89.59" y2="386.32" xlink:href="#linear-gradient"/><linearGradient id="linear-gradient-25" x1="89.59" y1="103.03" x2="89.59" y2="389.79" xlink:href="#linear-gradient"/><linearGradient id="linear-gradient-26" x1="89.59" y1="106.5" x2="89.59" y2="393.25" xlink:href="#linear-gradient"/><linearGradient id="linear-gradient-27" x1="89.59" y1="109.97" x2="89.59" y2="396.72" xlink:href="#linear-gradient"/><linearGradient id="linear-gradient-28" x1="89.59" y1="113.44" x2="89.59" y2="400.19" xlink:href="#linear-gradient"/><linearGradient id="linear-gradient-29" x1="89.59" y1="116.91" x2="89.59" y2="403.66" xlink:href="#linear-gradient"/><linearGradient id="linear-gradient-30" x1="274.03" y1="19.77" x2="274.03" y2="306.52" xlink:href="#linear-gradient"/><linearGradient id="linear-gradient-31" x1="274.03" y1="23.24" x2="274.03" y2="309.99" xlink:href="#linear-gradient"/><linearGradient id="linear-gradient-32" x1="274.03" y1="26.71" x2="274.03" y2="313.46" xlink:href="#linear-gradient"/><linearGradient id="linear-gradient-33" x1="274.03" y1="30.18" x2="274.03" y2="316.93" xlink:href="#linear-gradient"/><linearGradient id="linear-gradient-34" x1="274.03" y1="33.65" x2="274.03" y2="320.4" xlink:href="#linear-gradient"/><linearGradient id="linear-gradient-35" x1="218.03" y1="37.12" x2="218.03" y2="323.87" xlink:href="#linear-gradient"/><linearGradient id="linear-gradient-36" x1="330.03" y1="37.12" x2="330.03" y2="323.87" xlink:href="#linear-gradient"/><linearGradient id="linear-gradient-37" x1="332.66" y1="40.58" x2="332.66" y2="327.34" xlink:href="#linear-gradient"/><linearGradient id="linear-gradient-38" x1="215.4" y1="40.58" x2="215.4" y2="327.34" xlink:href="#linear-gradient"/><linearGradient id="linear-gradient-39" x1="333.06" y1="44.05" x2="333.06" y2="330.81" xlink:href="#linear-gradient"/><linearGradient id="linear-gradient-40" x1="215.01" y1="44.05" x2="215.01" y2="330.81" xlink:href="#linear-gradient"/><linearGradient id="linear-gradient-41" x1="333.06" y1="47.52" x2="333.06" y2="334.28" xlink:href="#linear-gradient"/><linearGradient id="linear-gradient-42" x1="215.01" y1="47.52" x2="215.01" y2="334.28" xlink:href="#linear-gradient"/><linearGradient id="linear-gradient-43" x1="333.06" y1="50.99" x2="333.06" y2="337.75" xlink:href="#linear-gradient"/><linearGradient id="linear-gradient-44" x1="215.01" y1="50.99" x2="215.01" y2="337.75" xlink:href="#linear-gradient"/><linearGradient id="linear-gradient-45" x1="333.06" y1="54.46" x2="333.06" y2="341.21" xlink:href="#linear-gradient"/><linearGradient id="linear-gradient-46" x1="215.01" y1="54.46" x2="215.01" y2="341.21" xlink:href="#linear-gradient"/><linearGradient id="linear-gradient-47" x1="333.06" y1="57.93" x2="333.06" y2="344.68" xlink:href="#linear-gradient"/><linearGradient id="linear-gradient-48" x1="215.01" y1="57.93" x2="215.01" y2="344.68" xlink:href="#linear-gradient"/><linearGradient id="linear-gradient-49" x1="333.06" y1="61.4" x2="333.06" y2="348.15" xlink:href="#linear-gradient"/><linearGradient id="linear-gradient-50" x1="215.01" y1="61.4" x2="215.01" y2="348.15" xlink:href="#linear-gradient"/><linearGradient id="linear-gradient-51" x1="215.01" y1="64.87" x2="215.01" y2="351.62" xlink:href="#linear-gradient"/><linearGradient id="linear-gradient-52" x1="333.06" y1="64.87" x2="333.06" y2="351.62" xlink:href="#linear-gradient"/><linearGradient id="linear-gradient-53" x1="333.06" y1="68.34" x2="333.06" y2="355.09" xlink:href="#linear-gradient"/><linearGradient id="linear-gradient-54" x1="215.01" y1="68.34" x2="215.01" y2="355.09" xlink:href="#linear-gradient"/><linearGradient id="linear-gradient-55" x1="215.01" y1="71.81" x2="215.01" y2="358.56" xlink:href="#linear-gradient"/><linearGradient id="linear-gradient-56" x1="333.06" y1="71.81" x2="333.06" y2="358.56" xlink:href="#linear-gradient"/><linearGradient id="linear-gradient-57" x1="215.01" y1="75.28" x2="215.01" y2="362.03" xlink:href="#linear-gradient"/><linearGradient id="linear-gradient-58" x1="333.06" y1="75.28" x2="333.06" y2="362.03" xlink:href="#linear-gradient"/><linearGradient id="linear-gradient-59" x1="215.01" y1="78.75" x2="215.01" y2="365.5" xlink:href="#linear-gradient"/><linearGradient id="linear-gradient-60" x1="333.06" y1="78.75" x2="333.06" y2="365.5" xlink:href="#linear-gradient"/><linearGradient id="linear-gradient-61" x1="333.06" y1="82.22" x2="333.06" y2="368.97" xlink:href="#linear-gradient"/><linearGradient id="linear-gradient-62" x1="215.01" y1="82.22" x2="215.01" y2="368.97" xlink:href="#linear-gradient"/><linearGradient id="linear-gradient-63" x1="333.06" y1="85.69" x2="333.06" y2="372.44" xlink:href="#linear-gradient"/><linearGradient id="linear-gradient-64" x1="215.01" y1="85.69" x2="215.01" y2="372.44" xlink:href="#linear-gradient"/><linearGradient id="linear-gradient-65" x1="333.06" y1="89.16" x2="333.06" y2="375.91" xlink:href="#linear-gradient"/><linearGradient id="linear-gradient-66" x1="215.01" y1="89.16" x2="215.01" y2="375.91" xlink:href="#linear-gradient"/><linearGradient id="linear-gradient-67" x1="215.01" y1="92.63" x2="215.01" y2="379.38" xlink:href="#linear-gradient"/><linearGradient id="linear-gradient-68" x1="333.06" y1="92.63" x2="333.06" y2="379.38" xlink:href="#linear-gradient"/><linearGradient id="linear-gradient-69" x1="215.5" y1="96.09" x2="215.5" y2="382.85" xlink:href="#linear-gradient"/><linearGradient id="linear-gradient-70" x1="332.56" y1="96.09" x2="332.56" y2="382.85" xlink:href="#linear-gradient"/><linearGradient id="linear-gradient-71" x1="218.45" y1="99.56" x2="218.45" y2="386.32" xlink:href="#linear-gradient"/><linearGradient id="linear-gradient-72" x1="329.61" y1="99.56" x2="329.61" y2="386.32" xlink:href="#linear-gradient"/><linearGradient id="linear-gradient-73" x1="274.03" y1="103.03" x2="274.03" y2="389.79" xlink:href="#linear-gradient"/><linearGradient id="linear-gradient-74" x1="274.03" y1="106.5" x2="274.03" y2="393.25" xlink:href="#linear-gradient"/><linearGradient id="linear-gradient-75" x1="274.03" y1="109.97" x2="274.03" y2="396.72" xlink:href="#linear-gradient"/><linearGradient id="linear-gradient-76" x1="274.03" y1="113.44" x2="274.03" y2="400.19" xlink:href="#linear-gradient"/><linearGradient id="linear-gradient-77" x1="274.03" y1="116.91" x2="274.03" y2="403.66" xlink:href="#linear-gradient"/><linearGradient id="linear-gradient-78" x1="89.62" y1="380.23" x2="89.62" y2="5.27" xlink:href="#linear-gradient"/><linearGradient id="linear-gradient-79" x1="304.36" y1="385.5" x2="304.36" y2="0" xlink:href="#linear-gradient"/></defs><title>diez</title><g id="Layer_2" data-name="Layer 2"><g id="VAPING"><rect class="cls-1" x="60.6" y="189.08" width="57.97" height="3.64"/><rect class="cls-1" x="60.6" y="229.11" width="57.97" height="3.64"/><rect class="cls-1" x="60.6" y="242.45" width="57.97" height="3.64"/><rect class="cls-1" x="60.6" y="335.87" width="57.97" height="3.64"/><rect class="cls-1" x="60.6" y="175.73" width="57.97" height="3.64"/><rect class="cls-1" x="60.6" y="362.56" width="57.97" height="3.64"/><rect class="cls-1" x="60.6" y="202.42" width="57.97" height="3.64"/><rect class="cls-1" x="60.6" y="215.76" width="57.97" height="3.64"/><rect class="cls-1" x="60.6" y="309.18" width="57.97" height="3.64"/><rect class="cls-1" x="60.6" y="322.52" width="57.97" height="3.64"/><rect class="cls-1" x="60.6" y="269.14" width="57.97" height="3.64"/><rect class="cls-1" x="60.6" y="295.83" width="57.97" height="3.64"/><rect class="cls-1" x="60.6" y="282.49" width="57.97" height="3.64"/><rect class="cls-1" x="60.6" y="349.21" width="57.97" height="3.64"/><rect class="cls-1" x="60.6" y="255.8" width="57.97" height="3.64"/><path class="cls-1" d="M58,59.27h60.53V55.63H62.22A48,48,0,0,1,58,59.27Z"/><rect class="cls-1" x="60.6" y="389.25" width="57.97" height="3.64"/><path class="cls-1" d="M0,72.27v.34H118.57V69H36.47C26.69,71.3,14.79,72.27,0,72.27Z"/><rect class="cls-1" y="82.32" width="118.57" height="3.64"/><path class="cls-1" d="M76.94,32.58h41.63V28.94H78.42C77.93,30.19,77.44,31.4,76.94,32.58Z"/><path class="cls-1" d="M70,45.92h48.53V42.28H72.21C71.51,43.54,70.79,44.76,70,45.92Z"/><rect class="cls-1" y="109.01" width="118.57" height="3.64"/><rect class="cls-1" x="60.6" y="135.7" width="57.97" height="3.64"/><rect class="cls-1" x="60.6" y="149.04" width="57.97" height="3.64"/><rect class="cls-1" y="95.66" width="118.57" height="3.64"/><rect class="cls-1" x="60.6" y="122.35" width="57.97" height="3.64"/><rect class="cls-1" x="60.6" y="375.9" width="57.97" height="3.64"/><rect class="cls-1" x="60.6" y="162.39" width="57.97" height="3.64"/><path class="cls-2" d="M78.42,28.94h40.15V25.89h-39C79.19,26.93,78.81,27.94,78.42,28.94Z"/><path class="cls-3" d="M72.21,42.28h46.36v-9.7H76.94A97.47,97.47,0,0,1,72.21,42.28Z"/><path class="cls-4" d="M62.22,55.63h56.35V45.92H70A54.3,54.3,0,0,1,62.22,55.63Z"/><path class="cls-5" d="M36.47,69h82.1v-9.7H58C52.17,63.77,45.16,66.91,36.47,69Z"/><rect class="cls-6" y="72.61" width="118.57" height="9.71"/><rect class="cls-7" y="85.96" width="118.57" height="9.71"/><rect class="cls-8" y="99.3" width="118.57" height="9.71"/><polygon class="cls-9" points="0 113.38 60.6 113.38 60.6 122.35 118.57 122.35 118.57 112.65 0 112.65 0 113.38"/><rect class="cls-10" x="60.6" y="125.99" width="57.97" height="9.71"/><rect class="cls-11" x="60.6" y="139.34" width="57.97" height="9.71"/><rect class="cls-12" x="60.6" y="152.68" width="57.97" height="9.71"/><rect class="cls-13" x="60.6" y="166.03" width="57.97" height="9.71"/><rect class="cls-14" x="60.6" y="179.37" width="57.97" height="9.71"/><rect class="cls-15" x="60.6" y="192.72" width="57.97" height="9.71"/><rect class="cls-16" x="60.6" y="206.06" width="57.97" height="9.71"/><rect class="cls-17" x="60.6" y="219.4" width="57.97" height="9.71"/><rect class="cls-18" x="60.6" y="232.75" width="57.97" height="9.71"/><rect class="cls-19" x="60.6" y="246.09" width="57.97" height="9.71"/><rect class="cls-20" x="60.6" y="259.44" width="57.97" height="9.71"/><rect class="cls-21" x="60.6" y="272.78" width="57.97" height="9.71"/><rect class="cls-22" x="60.6" y="286.13" width="57.97" height="9.71"/><rect class="cls-23" x="60.6" y="299.47" width="57.97" height="9.71"/><rect class="cls-24" x="60.6" y="312.82" width="57.97" height="9.71"/><rect class="cls-25" x="60.6" y="326.16" width="57.97" height="9.71"/><rect class="cls-26" x="60.6" y="339.51" width="57.97" height="9.71"/><rect class="cls-27" x="60.6" y="352.85" width="57.97" height="9.71"/><rect class="cls-28" x="60.6" y="366.2" width="57.97" height="9.71"/><rect class="cls-29" x="60.6" y="379.54" width="57.97" height="9.71"/><rect class="cls-30" x="60.6" y="392.88" width="57.97" height="1.91"/><path class="cls-1" d="M245.38,95.66c-.26,1.17-.48,2.38-.67,3.64A70,70,0,0,0,244,109c0,.23,0,.45,0,.68V311c0,.62,0,1.22,0,1.82a65.45,65.45,0,0,0,.87,9.7c.21,1.27.47,2.48.76,3.64a33,33,0,0,0,4,9.71,24.68,24.68,0,0,0,2.83,3.64c5.19,5.47,12.53,7.85,21.51,7.85s16.33-2.38,21.51-7.85a24,24,0,0,0,2.83-3.64,32.51,32.51,0,0,0,4-9.71c.3-1.16.55-2.37.77-3.64a66.83,66.83,0,0,0,.87-9.7c0-.6,0-1.2,0-1.82V109.69c0-.23,0-.45,0-.68a70,70,0,0,0-.71-9.71c-.18-1.26-.41-2.47-.67-3.64a34.75,34.75,0,0,0-3.62-9.7,24.89,24.89,0,0,0-2.51-3.64c-5.22-6.29-12.94-9-22.52-9s-17.3,2.71-22.52,9A25.69,25.69,0,0,0,249,86,35.07,35.07,0,0,0,245.38,95.66Z"/><path class="cls-1" d="M194.09,352.85H354c.49-1.19,1-2.4,1.41-3.64H192.67C193.12,350.45,193.59,351.66,194.09,352.85Z"/><path class="cls-1" d="M212.51,379.54h123c1.29-1.17,2.55-2.37,3.75-3.64H208.77C210,377.17,211.22,378.37,212.51,379.54Z"/><rect class="cls-1" x="186.02" y="255.8" width="57.97" height="3.64"/><path class="cls-1" d="M251.51,82.32H189.42c-.29,1.19-.55,2.41-.8,3.64H249A25.69,25.69,0,0,1,251.51,82.32Z"/><path class="cls-1" d="M231.19,28.94a76.51,76.51,0,0,0-7,3.64h99.77a76.51,76.51,0,0,0-7-3.64Z"/><rect class="cls-1" x="186.02" y="242.45" width="57.97" height="3.64"/><path class="cls-1" d="M201.09,366.2H347c.78-1.19,1.53-2.4,2.25-3.64H198.84C199.56,363.8,200.31,365,201.09,366.2Z"/><rect class="cls-1" x="304.07" y="122.35" width="57.97" height="3.64"/><rect class="cls-1" x="186.02" y="269.14" width="57.97" height="3.64"/><rect class="cls-1" x="186.02" y="149.04" width="57.97" height="3.64"/><rect class="cls-1" x="186.02" y="135.7" width="57.97" height="3.64"/><rect class="cls-1" x="186.02" y="215.76" width="57.97" height="3.64"/><rect class="cls-1" x="186.02" y="162.39" width="57.97" height="3.64"/><rect class="cls-1" x="186.02" y="202.42" width="57.97" height="3.64"/><rect class="cls-1" x="186.02" y="175.73" width="57.97" height="3.64"/><rect class="cls-1" x="186.02" y="122.35" width="57.97" height="3.64"/><rect class="cls-1" x="186.02" y="189.08" width="57.97" height="3.64"/><path class="cls-1" d="M245.38,95.66H187.06c-.14,1.2-.27,2.42-.38,3.64h58C244.9,98,245.12,96.83,245.38,95.66Z"/><rect class="cls-1" x="186.02" y="229.11" width="57.97" height="3.64"/><rect class="cls-1" x="186.02" y="282.49" width="57.97" height="3.64"/><rect class="cls-1" x="304.07" y="215.76" width="57.97" height="3.64"/><path class="cls-1" d="M299.06,86h60.38c-.25-1.23-.51-2.45-.79-3.64h-62.1A24.89,24.89,0,0,1,299.06,86Z"/><rect class="cls-1" x="304.07" y="202.42" width="57.97" height="3.64"/><rect class="cls-1" x="304.07" y="242.45" width="57.97" height="3.64"/><path class="cls-1" d="M192.26,72.61H355.8c-.43-1.23-.88-2.44-1.35-3.64H193.61C193.14,70.17,192.69,71.38,192.26,72.61Z"/><path class="cls-1" d="M303.35,99.3h58c-.12-1.22-.25-2.44-.39-3.64H302.68C302.94,96.83,303.17,98,303.35,99.3Z"/><rect class="cls-1" x="186.02" y="295.83" width="57.97" height="3.64"/><rect class="cls-1" x="304.07" y="189.08" width="57.97" height="3.64"/><rect class="cls-1" x="304.07" y="149.04" width="57.97" height="3.64"/><rect class="cls-1" x="304.07" y="135.7" width="57.97" height="3.64"/><rect class="cls-1" x="304.07" y="162.39" width="57.97" height="3.64"/><path class="cls-1" d="M304.07,109.69v3h58c0-1.23,0-2.44-.06-3.64H304.06C304.06,109.24,304.07,109.46,304.07,109.69Z"/><rect class="cls-1" x="304.07" y="175.73" width="57.97" height="3.64"/><rect class="cls-1" x="304.07" y="229.11" width="57.97" height="3.64"/><path class="cls-1" d="M295.54,339.51h62.81c.3-1.2.59-2.41.85-3.64H298.37A24,24,0,0,1,295.54,339.51Z"/><path class="cls-1" d="M244.89,322.52H186.78c.12,1.23.27,2.44.43,3.64h58.44C245.36,325,245.1,323.79,244.89,322.52Z"/><path class="cls-1" d="M249.69,335.87H188.86c.27,1.23.55,2.44.85,3.64h62.81A24.68,24.68,0,0,1,249.69,335.87Z"/><path class="cls-1" d="M198.22,59.27H349.84c-.69-1.24-1.41-2.46-2.16-3.64H200.38C199.63,56.81,198.91,58,198.22,59.27Z"/><path class="cls-1" d="M244,311v-1.82H186.06c0,1.22,0,2.44.06,3.64H244C244,312.22,244,311.62,244,311Z"/><path class="cls-1" d="M207.74,45.92H340.32c-1.13-1.25-2.3-2.47-3.52-3.64H211.26C210,43.45,208.88,44.67,207.74,45.92Z"/><path class="cls-1" d="M302.41,326.16h58.45c.15-1.2.3-2.41.43-3.64H303.18C303,323.79,302.71,325,302.41,326.16Z"/><rect class="cls-1" x="304.07" y="255.8" width="57.97" height="3.64"/><rect class="cls-1" x="304.07" y="269.14" width="57.97" height="3.64"/><rect class="cls-1" x="304.07" y="282.49" width="57.97" height="3.64"/><rect class="cls-1" x="304.07" y="295.83" width="57.97" height="3.64"/><path class="cls-1" d="M304.07,311c0,.62,0,1.22,0,1.82H362c0-1.2.05-2.42.06-3.64H304.07Z"/><path class="cls-1" d="M244,109.69c0-.23,0-.45,0-.68H186.1c0,1.2-.06,2.41-.06,3.64h58Z"/><path class="cls-1" d="M233.84,392.88h80.38a76.87,76.87,0,0,0,7.65-3.63H226.19A76.87,76.87,0,0,0,233.84,392.88Z"/><path class="cls-31" d="M274,20.62c-16.5,0-30.81,2.86-42.84,8.32h85.69C304.85,23.48,290.53,20.62,274,20.62Z"/><path class="cls-32" d="M211.26,42.28H336.8a70.11,70.11,0,0,0-12.88-9.7H224.15A69.84,69.84,0,0,0,211.26,42.28Z"/><path class="cls-33" d="M200.38,55.63h147.3a72.21,72.21,0,0,0-7.36-9.71H207.74A73.05,73.05,0,0,0,200.38,55.63Z"/><path class="cls-34" d="M193.61,69H354.45a84.07,84.07,0,0,0-4.61-9.7H198.22A84.07,84.07,0,0,0,193.61,69Z"/><path class="cls-35" d="M189.42,82.32h62.09c5.22-6.29,12.94-9,22.52-9s17.3,2.71,22.52,9h62.1a99.89,99.89,0,0,0-2.85-9.71H192.26A99.88,99.88,0,0,0,189.42,82.32Z"/><path class="cls-36" d="M249,86H188.62c-.63,3.13-1.15,6.37-1.56,9.7h58.32A35.07,35.07,0,0,1,249,86Z"/><path class="cls-37" d="M302.68,95.66H361c-.4-3.33-.92-6.57-1.56-9.7H299.06A34.75,34.75,0,0,1,302.68,95.66Z"/><path class="cls-38" d="M304.06,109H362c-.09-3.32-.29-6.56-.58-9.71h-58A70,70,0,0,1,304.06,109Z"/><path class="cls-39" d="M244.71,99.3h-58q-.45,4.73-.58,9.71H244A70,70,0,0,1,244.71,99.3Z"/><path class="cls-40" d="M304.07,122.35h58v-9c0-.24,0-.48,0-.72h-58Z"/><path class="cls-41" d="M244,112.65H186c0,.24,0,.48,0,.72v9h58Z"/><rect class="cls-42" x="304.07" y="125.99" width="57.97" height="9.71"/><rect class="cls-43" x="186.02" y="125.99" width="57.97" height="9.71"/><rect class="cls-44" x="304.07" y="139.34" width="57.97" height="9.71"/><rect class="cls-45" x="186.02" y="139.34" width="57.97" height="9.71"/><rect class="cls-46" x="304.07" y="152.68" width="57.97" height="9.71"/><rect class="cls-47" x="186.02" y="152.68" width="57.97" height="9.71"/><rect class="cls-48" x="304.07" y="166.03" width="57.97" height="9.71"/><rect class="cls-49" x="186.02" y="166.03" width="57.97" height="9.71"/><rect class="cls-50" x="304.07" y="179.37" width="57.97" height="9.71"/><rect class="cls-51" x="186.02" y="179.37" width="57.97" height="9.71"/><rect class="cls-52" x="186.02" y="192.72" width="57.97" height="9.71"/><rect class="cls-53" x="304.07" y="192.72" width="57.97" height="9.71"/><rect class="cls-54" x="304.07" y="206.06" width="57.97" height="9.71"/><rect class="cls-55" x="186.02" y="206.06" width="57.97" height="9.71"/><rect class="cls-56" x="186.02" y="219.4" width="57.97" height="9.71"/><rect class="cls-57" x="304.07" y="219.4" width="57.97" height="9.71"/><rect class="cls-58" x="186.02" y="232.75" width="57.97" height="9.71"/><rect class="cls-59" x="304.07" y="232.75" width="57.97" height="9.71"/><rect class="cls-60" x="186.02" y="246.09" width="57.97" height="9.71"/><rect class="cls-61" x="304.07" y="246.09" width="57.97" height="9.71"/><rect class="cls-62" x="304.07" y="259.44" width="57.97" height="9.71"/><rect class="cls-63" x="186.02" y="259.44" width="57.97" height="9.71"/><rect class="cls-64" x="304.07" y="272.78" width="57.97" height="9.71"/><rect class="cls-65" x="186.02" y="272.78" width="57.97" height="9.71"/><rect class="cls-66" x="304.07" y="286.13" width="57.97" height="9.71"/><rect class="cls-67" x="186.02" y="286.13" width="57.97" height="9.71"/><path class="cls-68" d="M244,299.47H186v7.84c0,.63,0,1.24,0,1.87H244Z"/><path class="cls-69" d="M304.07,309.18H362c0-.63,0-1.24,0-1.87v-7.84h-58Z"/><path class="cls-70" d="M244,312.82h-57.9c.11,3.32.34,6.55.66,9.7h58.11A65.45,65.45,0,0,1,244,312.82Z"/><path class="cls-71" d="M303.18,322.52h58.11q.48-4.72.66-9.7h-57.9A66.83,66.83,0,0,1,303.18,322.52Z"/><path class="cls-72" d="M245.65,326.16H187.21q.64,5,1.65,9.71h60.83A33,33,0,0,1,245.65,326.16Z"/><path class="cls-73" d="M298.37,335.87H359.2q1-4.69,1.66-9.71H302.41A32.51,32.51,0,0,1,298.37,335.87Z"/><path class="cls-74" d="M274,347.36c-9,0-16.32-2.38-21.51-7.85H189.71a97.1,97.1,0,0,0,3,9.7H355.39a97.1,97.1,0,0,0,3-9.7H295.54C290.36,345,283,347.36,274,347.36Z"/><path class="cls-75" d="M198.84,362.56H349.22a84.1,84.1,0,0,0,4.76-9.71H194.09A82.46,82.46,0,0,0,198.84,362.56Z"/><path class="cls-76" d="M208.77,375.9H339.3a71.29,71.29,0,0,0,7.67-9.7H201.09A72.14,72.14,0,0,0,208.77,375.9Z"/><path class="cls-77" d="M226.19,389.25h95.68a70.26,70.26,0,0,0,13.68-9.71h-123A70.57,70.57,0,0,0,226.19,389.25Z"/><path class="cls-78" d="M274,400.06c15.31,0,28.73-2.46,40.19-7.18H233.84C245.31,397.6,258.73,400.06,274,400.06Z"/><path class="cls-79" d="M73.34,104.28H12.74V63.17c49,0,66.4-10.54,79.57-46.38h39v368.9h-58Z"/><path class="cls-79" d="M198.76,298.21V104.28c0-59,31.09-92.76,88-92.76s88,33.73,88,92.76V298.21c0,59-31.09,92.75-88,92.75S198.76,357.23,198.76,298.21Zm118.05,3.69V100.59c0-26.35-11.6-36.37-30-36.37s-30,10-30,36.37V301.9c0,26.35,11.59,36.36,30,36.36S316.81,328.25,316.81,301.9Z"/><path class="cls-80" d="M90.93,95.78H30.33V54.68c49,0,66.4-10.54,79.58-46.38h39V377.2h-58Z"/><path class="cls-81" d="M216.35,289.72V95.78c0-59,31.09-92.75,88-92.75s88,33.73,88,92.75V289.72c0,59-31.09,92.75-88,92.75S216.35,348.74,216.35,289.72Zm118,3.69V92.09c0-26.34-11.59-36.36-30-36.36s-30,10-30,36.36V293.41c0,26.35,11.6,36.36,30,36.36S334.4,319.76,334.4,293.41Z"/></g></g></svg>