<svg xmlns="http://www.w3.org/2000/svg" viewBox="0 0 32.37 60"><defs><style>.cls-1{fill:#221e1f;}</style></defs><title>face</title><g id="Layer_2" data-name="Layer 2"><g id="BOT"><path class="cls-1" d="M21.7,46.46V57.74c0,.34,0,.69,0,1a1.12,1.12,0,0,1-1,1.15,6.38,6.38,0,0,1-.87.07H10.84C9.4,60,9,59.62,9,58.16c0-7.82,0-15.64,0-23.45,0-.74-.21-.87-.89-.86-2.12,0-4.25,0-6.37,0C.37,33.86,0,33.51,0,32.08q0-4.32,0-8.65c0-1.46.36-1.81,1.82-1.81,2.17,0,4.35,0,6.52,0,.53,0,.71-.09.7-.67,0-2.29-.07-4.59,0-6.89C9.21,9.79,10.52,6,13.94,3.13a13.45,13.45,0,0,1,8.22-3C25.08,0,28,0,31,0c1,0,1.4.42,1.41,1.45q0,4.24,0,8.5c0,1.16-.37,1.55-1.52,1.58-2,0-4,0-5.94.07-2.23,0-3.15.92-3.19,3.17,0,2,0,4.06,0,6.08,0,.51.17.6.63.59,2.61,0,5.23,0,7.84,0,1.54,0,1.92.37,1.92,1.89v8.72c0,1.36-.34,1.69-1.69,1.7-2.59,0-5.18,0-7.77,0-.7,0-.94.12-.93.9C21.73,38.59,21.7,42.52,21.7,46.46Z"/></g></g></svg>