<svg xmlns="http://www.w3.org/2000/svg" viewBox="0 0 59.94 60"><defs><style>.cls-1{fill:#221e1f;}</style></defs><title>insta</title><g id="Layer_2" data-name="Layer 2"><g id="BOT"><path class="cls-1" d="M46.09,10.46a3.59,3.59,0,1,1,0,7.17,3.59,3.59,0,0,1,0-7.17Z"/><path class="cls-1" d="M30.07,45.44a15.4,15.4,0,1,1,15.4-15.39A15.44,15.44,0,0,1,30.07,45.44Zm10-15.37a10,10,0,1,0-10,9.94A10,10,0,0,0,40.06,30.07Z"/><path class="cls-1" d="M43.14,60H16.8A16.8,16.8,0,0,1,0,43.2V16.8A16.8,16.8,0,0,1,16.8,0H43.14a16.8,16.8,0,0,1,16.8,16.8V43.2A16.8,16.8,0,0,1,43.14,60ZM54.5,42.92V17.2A11.69,11.69,0,0,0,42.8,5.51H17.14A11.69,11.69,0,0,0,5.45,17.2V42.92A11.69,11.69,0,0,0,17.14,54.61H42.8A11.69,11.69,0,0,0,54.5,42.92Z"/></g></g></svg>