<svg xmlns="http://www.w3.org/2000/svg" xmlns:xlink="http://www.w3.org/1999/xlink" viewBox="0 0 67.15 67.15"><defs><style>.cls-1{fill:url(#linear-gradient);}</style><linearGradient id="linear-gradient" x1="0.8" y1="-0.1" x2="66.02" y2="66.91" gradientUnits="userSpaceOnUse"><stop offset="0" stop-color="#fc0201"/><stop offset="0.2" stop-color="#f5872e"/><stop offset="0.4" stop-color="#e8aa00"/><stop offset="0.6" stop-color="#7cde00"/><stop offset="0.8" stop-color="#0260f2"/><stop offset="1" stop-color="#750dfa"/></linearGradient></defs><title>logo-color</title><g id="Layer_2" data-name="Layer 2"><g id="TOP"><path class="cls-1" d="M0,0V67.15H67.15V0ZM65.15,64.78H2.1V61.87l17.05-.1a16,16,0,0,0,6.1-1.4A19.67,19.67,0,0,0,32.52,55a24.3,24.3,0,0,1-1.47-2.69,21.73,21.73,0,0,1-.84-2,23.27,23.27,0,0,1-5.06,4.31,14.14,14.14,0,0,1-4.73,2,11.34,11.34,0,0,1-1.69.22L7,56.78V29.05h8.2a15.77,15.77,0,0,1,4.31.22l.3.06a15.33,15.33,0,0,1,10.12,7,12.42,12.42,0,0,1,1.37,5.17,22.49,22.49,0,0,0,1.37,7.75,18.92,18.92,0,0,0,2.94,5.48A18.73,18.73,0,0,0,43,60.37a16.39,16.39,0,0,0,6.1,1.4l16,.1ZM7,9.68H20.1a7.19,7.19,0,0,1,4.11,2.37A7.61,7.61,0,0,1,25.79,18a7.29,7.29,0,0,1-2.11,4,7.1,7.1,0,0,1-4.52,1.94H7.05Q7,16.78,7,9.68Zm58.2-4.89H46.89a11.68,11.68,0,0,0-2.9,1,12,12,0,0,0-5.48,5.81,13,13,0,0,0-.21,9.15A14.8,14.8,0,0,0,41,25.83a21.63,21.63,0,0,0-5,4.62l-.49.62a21.85,21.85,0,0,1,1.55,2.5,21.14,21.14,0,0,1,1.25,2.94c2.88-5.48,8.87-6.92,10.53-7.24a15.76,15.76,0,0,1,4.31-.22h8.2V56.78l-12.29-.07a9.12,9.12,0,0,1-1.69-.21,10.54,10.54,0,0,1-3.68-1.73,15.46,15.46,0,0,1-5.16-5.48c-1.29-2.41-1.59-4.68-2.1-8.61-.35-2.66-.16-3-.64-4.52a16,16,0,0,0-3.47-5.71,26.1,26.1,0,0,0-5.05-4.62A14.8,14.8,0,0,0,30,20.77a13.06,13.06,0,0,0-.21-9.15,12,12,0,0,0-5.48-5.81,11.68,11.68,0,0,0-2.9-1H2.21V2.37H65.15Zm-3.8,4.89q0,7.11-.1,14.21H49.14A7.1,7.1,0,0,1,44.62,22a7.22,7.22,0,0,1-2.11-4,7.61,7.61,0,0,1,1.58-5.92A7.16,7.16,0,0,1,48.2,9.68Z"/></g></g></svg>