<svg xmlns="http://www.w3.org/2000/svg" viewBox="0 0 693.28 356.44"><defs><style>.cls-1{fill:#f5f4f5;}</style></defs><title>logo-white</title><g id="Layer_2" data-name="Layer 2"><g id="CONTACT"><path class="cls-1" d="M241.09,0V210h210V0ZM444.88,202.63H247.68v-9.09l53.32-.33c5.4,0,11.65-1.26,19.09-4.38A61.35,61.35,0,0,0,342.82,172a75.54,75.54,0,0,1-4.61-8.41c-1-2.24-1.91-4.39-2.63-6.4a72.69,72.69,0,0,1-15.81,13.47c-7.75,4.85-13.12,6.05-14.81,6.39a37.1,37.1,0,0,1-5.27.67l-36.83-.13V90.88H288.5a49.09,49.09,0,0,1,13.5.67l.93.19c22.63,4.74,31.66,22,31.66,22a39,39,0,0,1,4.28,16.16,70.92,70.92,0,0,0,4.28,24.23,59.36,59.36,0,0,0,9.22,17.17,58.76,58.76,0,0,0,23.34,17.5c7.51,3.11,13.82,4.34,19.1,4.38l50.07.31ZM262.82,30.29H304a22.24,22.24,0,0,1,12.84,7.41c6.61,7.82,5.14,17.32,4.94,18.51a22.83,22.83,0,0,1-6.58,12.46,22.06,22.06,0,0,1-14.16,6H263.15ZM444.88,15H387.76a35.91,35.91,0,0,0-9.08,3.19,37.54,37.54,0,0,0-17.12,18.17C356,49.09,359.62,60.79,360.9,65a46,46,0,0,0,8.56,15.82,68.5,68.5,0,0,0-15.8,14.48c-.49.61-1,1.25-1.53,1.93A62.89,62.89,0,0,1,357,105a64.67,64.67,0,0,1,3.9,9.17c9-17.14,27.75-21.64,32.94-22.64a49.09,49.09,0,0,1,13.5-.67H433v86.71l-38.45-.2a28.53,28.53,0,0,1-5.27-.68,32.78,32.78,0,0,1-11.52-5.38,48.47,48.47,0,0,1-16.14-17.17c-4.05-7.53-5-14.62-6.58-26.93-1.09-8.31-.49-9.44-2-14.13-2.48-7.83-6.74-12.9-10.87-17.84a81.55,81.55,0,0,0-15.8-14.48A46,46,0,0,0,334.92,65c1.28-4.17,4.87-15.87-.66-28.61a37.54,37.54,0,0,0-17.12-18.17A36,36,0,0,0,308.05,15H248l0-7.58H444.88ZM433,30.29l-.33,44.43H394.81a22.06,22.06,0,0,1-14.16-6,22.83,22.83,0,0,1-6.58-12.46C373.86,55,372.4,45.52,379,37.7a22.24,22.24,0,0,1,12.84-7.41Z"/><path class="cls-1" d="M0,353c10.56-.47,11.38-2.46,11.38-11.73V294.6c-.23-9.15-.7-11.15-10.56-11.62v-1.76h28.4c16.31,0,22.64,6,22.64,16.2s-9.85,15-15.13,16.31V314c10.32,1.53,20.3,7.63,20.3,18.89,0,8.1-4.11,13.85-11.27,17.72-6,3.05-13.37,4.11-22.29,4.11H0Zm26.17-39.77c13,0,18.54-5.52,18.54-14.79,0-5.16-1.88-14.9-19.13-14.9a57.2,57.2,0,0,0-6.45.23c-.83.12-1.41.36-1.41,2.59v26.87Zm-8.45,2.46v26.17c0,7.74,1.52,10.09,10.79,10.09,11.5,0,20.54-4.46,20.54-17.37s-9.39-18.89-23-18.89Z"/><path class="cls-1" d="M66,353c10.21-.47,11.15-2.46,11.15-11.73V294.6c0-9.15-.94-11.15-11.15-11.73v-1.65H94.34v1.65c-10.09.58-11.14,2.58-11.14,11.73v46.7c0,9.27,1,11.26,11.14,11.73v1.65H66Z"/><path class="cls-1" d="M158.88,336.37c-.82,3.87-3.4,13.14-4.22,18.31h-51V353c10-.47,10.79-2.46,10.79-12.32V294.6c0-9.15-.82-11.15-11.26-11.73v-1.65h29.1v1.65c-10.68.58-11.74,2.58-11.74,11.73v44.47c0,12.44,2.82,12.79,14.79,12.79,7,0,12.67-1.41,15.37-4.22a47.1,47.1,0,0,0,6.1-11.27Z"/><path class="cls-1" d="M220.61,336.37c-.83,3.87-3.41,13.14-4.23,18.31h-51V353c10-.47,10.8-2.46,10.8-12.32V294.6c0-9.15-.83-11.15-11.27-11.73v-1.65H194v1.65c-10.68.58-11.73,2.58-11.73,11.73v44.47c0,12.44,2.81,12.79,14.78,12.79,7,0,12.67-1.41,15.37-4.22a46.4,46.4,0,0,0,6.1-11.27Z"/><path class="cls-1" d="M226.71,353c10.21-.47,11.15-2.46,11.15-11.73V294.6c0-9.15-.94-11.15-11.15-11.73v-1.65h28.4v1.65C245,283.45,244,285.45,244,294.6v46.7c0,9.27,1.06,11.26,11.15,11.73v1.65h-28.4Z"/><path class="cls-1" d="M344.76,316.89c0,23.35-18.66,39.55-41,39.55-21.47,0-38.83-15.84-38.83-37.55,0-19.71,15.25-39.43,41.42-39.43C326,279.46,344.76,294.13,344.76,316.89Zm-71.58-1.4c0,22.88,14.43,38.13,33.44,38.13,15.84,0,30.16-10.91,30.16-31.8,0-26.63-14.91-39.54-33.8-39.54C287.38,282.4,273.18,292.84,273.18,315.49Z"/><path class="cls-1" d="M353.8,353c6.92-.47,10.21-2.81,11.14-6.1.94-3.52,1.3-10,1.3-21.82V299.65c0-10.45-.59-9.86-2.7-12.44-2-2.35-4.46-3.64-10.68-4.34v-1.65h14.43l54.21,62h.35V309.74c0-22.88-.11-25.94-13.84-26.87v-1.65h29.1v1.65c-6.81.58-9.74,2.81-10.8,6.21-1.05,3.64-1.17,9.63-1.17,20.66V355.5h-1.29l-54.09-61.6h-.24v31.21c.12,11.85.24,18.3,1.06,21.59,1.05,3.64,4.57,5.75,12.43,6.33v1.65H353.8Z"/><path class="cls-1" d="M490.74,353c6.69-.94,9.15-1.64,9.15-4.45,0-3.06-3.52-12.21-7.86-23H464.92c-1.17,2.23-7,18.07-7,21.7,0,4,3.17,4.7,9.74,5.75v1.65H441V353c8.21-1.64,9.74-2.69,14.08-13.26l25.46-59.72,1.41-.59,7.86,21.71c5.4,14.67,10.68,29.33,15.14,40.6,3.52,8.68,4.45,10,12.67,11.26v1.65H490.74Zm-11.38-62.65c-4.7,10.44-9.27,21.59-13,31.44H491l-11.38-31.44Z"/><path class="cls-1" d="M523.83,353C534,352.56,535,350.57,535,341.3V294.6c0-9.15-.94-11.15-11.15-11.73v-1.65h28.4v1.65c-10.09.58-11.15,2.58-11.15,11.73v46.7c0,9.27,1.06,11.26,11.15,11.73v1.65h-28.4Z"/><path class="cls-1" d="M560.91,353c10.45-.47,11.39-2.46,11.39-11.73V294.25c0-9.27-.94-10.56-10.8-11.27v-1.76h27.69c11.62,0,24.29,3.52,24.29,18.54,0,10-5.28,15.84-14.31,19.95a155.8,155.8,0,0,0,10.44,16.08c5.63,6.92,13.84,17,19.83,18.42l-.35,1.52c-10.68,0-16.31-.58-34-29.57-2.93-4.22-6.45-4.34-16.43-4.34V341.3c0,9.27.94,11.26,11,11.73v1.65H560.91Zm24.88-33.55c6.8,0,11.15-.94,14.31-3.53,3.88-3.05,6.11-7.74,6.11-14.43,0-12.55-8.1-17.95-20.3-17.95-3.17,0-5.17.12-6.22.23-.59,0-1.06.36-1.06,2.59v33.09Z"/><path class="cls-1" d="M634.14,353c11-.58,11.85-2.58,11.85-11.61v-46c0-10.09-.94-12.08-10.68-12.55v-1.65h51c0,4.11.59,11,1.06,18l-2,.35c-2.46-12-4.69-15.49-18.89-15.49h-11c-3.17,0-3.28.23-3.28,3.28v27.46h13.73c9.27,0,11.49-1.17,13.25-9h2v21.82h-2c-1.87-9-4.34-9.5-13.25-9.5H652.21V341c0,11,4.81,11,14.55,11,7.15,0,14.2-.12,18-4.46a36.52,36.52,0,0,0,6.57-11.62h2c-1.06,4.34-3.29,14.79-4.23,18.78H634.14Z"/></g></g></svg>