<svg xmlns="http://www.w3.org/2000/svg" xmlns:xlink="http://www.w3.org/1999/xlink" viewBox="0 0 387.43 162.01"><defs><style>.cls-1,.cls-7{fill:#fff;}.cls-2,.cls-3,.cls-4,.cls-5,.cls-6,.cls-7{stroke:#fff;stroke-miterlimit:10;}.cls-2,.cls-3,.cls-4,.cls-5,.cls-6{stroke-width:2px;}.cls-2{fill:url(#linear-gradient);}.cls-3{fill:url(#linear-gradient-2);}.cls-4{fill:url(#linear-gradient-3);}.cls-5{fill:url(#linear-gradient-4);}.cls-6{fill:url(#linear-gradient-5);}.cls-7{stroke-width:0.74px;}</style><linearGradient id="linear-gradient" x1="1.02" y1="82.61" x2="377.36" y2="84.65" gradientUnits="userSpaceOnUse"><stop offset="0" stop-color="#fc0201"/><stop offset="0.2" stop-color="#f5872e"/><stop offset="0.4" stop-color="#e8aa00"/><stop offset="0.6" stop-color="#7cde00"/><stop offset="0.8" stop-color="#0260f2"/><stop offset="1" stop-color="#750dfa"/></linearGradient><linearGradient id="linear-gradient-2" x1="1.02" y1="82.13" x2="377.36" y2="84.17" xlink:href="#linear-gradient"/><linearGradient id="linear-gradient-3" x1="1.02" y1="81.62" x2="377.36" y2="83.66" xlink:href="#linear-gradient"/><linearGradient id="linear-gradient-4" x1="1.02" y1="81.19" x2="377.36" y2="83.23" xlink:href="#linear-gradient"/><linearGradient id="linear-gradient-5" x1="1.02" y1="80.79" x2="377.36" y2="82.83" xlink:href="#linear-gradient"/></defs><title>never</title><g id="Layer_2" data-name="Layer 2"><g id="VAPING"><path class="cls-1" d="M2.52.49H5a1,1,0,0,1,.71.24,1.41,1.41,0,0,1,.43.6l14.9,36.29a17.87,17.87,0,0,1,1,3,17.44,17.44,0,0,1,.9-3L37.79,1.33a1.61,1.61,0,0,1,.45-.59A1.09,1.09,0,0,1,39,.49h2.48L23.38,44.24H20.57Z"/><path class="cls-1" d="M109.29,44.24h-2.44a1.1,1.1,0,0,1-.71-.23,1.5,1.5,0,0,1-.43-.61l-5.17-12.7H79.06L73.93,43.4a1.39,1.39,0,0,1-.43.59,1.15,1.15,0,0,1-.75.25H70.34L88.24.49h3.15ZM80,28.35h19.6L90.68,6.24c-.14-.35-.29-.74-.43-1.19s-.29-.91-.43-1.4c-.15.49-.29,1-.44,1.4S89.1,5.9,89,6.28Z"/><path class="cls-1" d="M151.21,26.62V44.24h-3.15V.49h11.28Q167,.49,171,3.86t3.91,9.62a12.91,12.91,0,0,1-1.07,5.28,11.66,11.66,0,0,1-3.07,4.16,14.3,14.3,0,0,1-4.89,2.72,20.11,20.11,0,0,1-6.49,1Zm0-2.54h8.13a15.82,15.82,0,0,0,5.2-.8,11.61,11.61,0,0,0,3.88-2.23,9.71,9.71,0,0,0,2.44-3.35,10.5,10.5,0,0,0,.85-4.22q0-5-3.11-7.76T159.34,3h-8.13Z"/><path class="cls-1" d="M219.07,44.24h-3.19V.49h3.19Z"/><path class="cls-1" d="M266.36.6a1.42,1.42,0,0,1,.53.48L295.21,39a15.84,15.84,0,0,1-.1-1.79V.49h2.79V44.24h-1.52a1.34,1.34,0,0,1-1.14-.62l-28.44-38c.06.62.09,1.2.09,1.76V44.24h-2.75V.49h1.54A1.75,1.75,0,0,1,266.36.6Z"/><path class="cls-1" d="M360.59,42.17a32.27,32.27,0,0,0,4.11-.24,21.48,21.48,0,0,0,3.45-.69,22.27,22.27,0,0,0,3-1.13c1-.44,1.92-.94,2.89-1.5V26.83h-8.41a.8.8,0,0,1-.57-.21.65.65,0,0,1-.23-.5V24.39h12.08V39.94a28.59,28.59,0,0,1-3.4,2,22.11,22.11,0,0,1-3.77,1.5,29.72,29.72,0,0,1-4.33.93,37.63,37.63,0,0,1-5.07.32,22.76,22.76,0,0,1-8.64-1.59A19.36,19.36,0,0,1,345,38.63a20.48,20.48,0,0,1-4.34-7.07,26.17,26.17,0,0,1-1.55-9.21,26.11,26.11,0,0,1,1.55-9.2,19.87,19.87,0,0,1,4.39-7A19.34,19.34,0,0,1,352,1.59,24.79,24.79,0,0,1,361.08,0a29,29,0,0,1,4.63.34,22,22,0,0,1,3.94,1A19.07,19.07,0,0,1,373.05,3a23.66,23.66,0,0,1,3,2.24l-.84,1.36a.86.86,0,0,1-.77.47,1.09,1.09,0,0,1-.53-.13,6.45,6.45,0,0,1-1.34-.86,14.46,14.46,0,0,0-2.38-1.42,19.28,19.28,0,0,0-3.76-1.33A22,22,0,0,0,361,2.72a20.71,20.71,0,0,0-7.7,1.36A16.33,16.33,0,0,0,347.44,8a17.15,17.15,0,0,0-3.74,6.18,23.93,23.93,0,0,0-1.32,8.19,24.33,24.33,0,0,0,1.33,8.32,17.85,17.85,0,0,0,3.73,6.23,16,16,0,0,0,5.75,3.91A19.62,19.62,0,0,0,360.59,42.17Z"/><path class="cls-2" d="M7.79,60.26a3,3,0,0,1,.83.23,2.47,2.47,0,0,1,.71.48,7.27,7.27,0,0,1,.78.83L31.5,88.85c-.08-.86-.15-1.7-.19-2.52s-.06-1.58-.06-2.3V60.2h9.21v45H35a5.16,5.16,0,0,1-2-.37,4.4,4.4,0,0,1-1.61-1.36L10.14,76.67c.06.79.11,1.55.15,2.31s.06,1.45.06,2.11v24.15H1.14v-45h5.5A9.18,9.18,0,0,1,7.79,60.26Z"/><path class="cls-3" d="M123.25,60.2v8H104.76V78.74h14.16v7.73H104.76V97.2h18.49v8h-29v-45Z"/><path class="cls-4" d="M171.85,60.2h8.4a3.77,3.77,0,0,1,2.23.61,3.43,3.43,0,0,1,1.24,1.64l8.71,24.12c.4,1.05.79,2.19,1.19,3.43s.78,2.53,1.13,3.89c.29-1.36.63-2.66,1-3.89s.75-2.38,1.13-3.43l8.65-24.12a3.57,3.57,0,0,1,1.21-1.56,3.47,3.47,0,0,1,2.19-.69h8.47l-18,45H189.9Z"/><path class="cls-5" d="M296.49,60.2v8H278V78.74h14.16v7.73H278V97.2h18.49v8h-29v-45Z"/><path class="cls-6" d="M359.24,88.58v16.66H348.8v-45h14.65a30.11,30.11,0,0,1,8.33,1,15.63,15.63,0,0,1,5.63,2.8,10.6,10.6,0,0,1,3.16,4.23,14,14,0,0,1,1,5.32,14.33,14.33,0,0,1-.58,4.14,12.79,12.79,0,0,1-1.75,3.6,13.29,13.29,0,0,1-2.85,3,15.31,15.31,0,0,1-3.87,2.13,9.67,9.67,0,0,1,2,1.3,7.51,7.51,0,0,1,1.59,1.88l9.58,15.68h-9.46a4,4,0,0,1-3.77-2l-7.48-13.08A3.15,3.15,0,0,0,363.77,89a3.82,3.82,0,0,0-1.87-.37Zm0-7.21h4.21a10.76,10.76,0,0,0,3.63-.54,6.56,6.56,0,0,0,2.46-1.5,5.68,5.68,0,0,0,1.39-2.24,8.56,8.56,0,0,0,.43-2.77,5.77,5.77,0,0,0-1.93-4.63c-1.29-1.12-3.28-1.67-6-1.67h-4.21Z"/><path class="cls-7" d="M23.51,121.59v.62H1.05v19.12H20.68V142H1.05v19.23H.37v-39.6Z"/><path class="cls-7" d="M56.15,121.59v.62H33.69v18.56H52.76v.62H33.69v19.18H56.21l-.06.62H33v-39.6Z"/><path class="cls-7" d="M67.64,160.57H87.83v.62H67v-39.6h.68Z"/><path class="cls-7" d="M116.12,121.59v.62H101.24v39h-.68v-39h-15v-.62Z"/><path class="cls-7" d="M153.12,125.21a.43.43,0,0,1-.31.17c-.17,0-.43-.19-.78-.58a9.15,9.15,0,0,0-1.53-1.26,12.27,12.27,0,0,0-2.59-1.26,11.75,11.75,0,0,0-4-.58,11.55,11.55,0,0,0-4.31.75,9.3,9.3,0,0,0-3.15,2,8.37,8.37,0,0,0-1.94,2.88,9,9,0,0,0-.67,3.43,7.48,7.48,0,0,0,.89,3.81,8.49,8.49,0,0,0,2.34,2.58,13.47,13.47,0,0,0,3.31,1.74c1.24.46,2.5.9,3.79,1.33s2.54.87,3.79,1.34a13.13,13.13,0,0,1,3.31,1.8,8.39,8.39,0,0,1,2.33,2.69,8,8,0,0,1,.89,4,12.37,12.37,0,0,1-.82,4.54,10.74,10.74,0,0,1-2.37,3.67,11,11,0,0,1-3.82,2.48,13.87,13.87,0,0,1-5.15.9,16.24,16.24,0,0,1-3.59-.35,12,12,0,0,1-5.32-2.63,18.1,18.1,0,0,1-2.12-2.16l.11-.12a1.14,1.14,0,0,1,.14-.12.32.32,0,0,1,.2,0c.11,0,.28.12.49.36s.52.53.9.9a17.49,17.49,0,0,0,1.35,1.18,11.06,11.06,0,0,0,1.93,1.17,12.75,12.75,0,0,0,2.58.91,14.55,14.55,0,0,0,3.33.35,12.68,12.68,0,0,0,4.88-.88,10.87,10.87,0,0,0,3.62-2.36,10,10,0,0,0,2.26-3.46,11.42,11.42,0,0,0,.78-4.22,8.09,8.09,0,0,0-.58-3.22,7.24,7.24,0,0,0-1.57-2.34,9.9,9.9,0,0,0-2.31-1.67,23.34,23.34,0,0,0-2.81-1.24c-1-.37-2-.71-3-1s-2.06-.66-3.06-1a22,22,0,0,1-2.81-1.29,9.38,9.38,0,0,1-2.31-1.75,7.79,7.79,0,0,1-1.57-2.46,8.92,8.92,0,0,1-.58-3.38,9.59,9.59,0,0,1,.71-3.64,9.07,9.07,0,0,1,2.06-3.07,10.26,10.26,0,0,1,3.35-2.12,12.3,12.3,0,0,1,4.57-.79,13.12,13.12,0,0,1,5.11.93,12.47,12.47,0,0,1,4.17,3Z"/><path class="cls-7" d="M198.21,141.39a24.69,24.69,0,0,1-1.35,8.43,18.3,18.3,0,0,1-3.76,6.35,16.32,16.32,0,0,1-5.78,4,19.3,19.3,0,0,1-7.44,1.4,19.06,19.06,0,0,1-7.4-1.4,16.28,16.28,0,0,1-5.77-4,18.3,18.3,0,0,1-3.76-6.35A26.93,26.93,0,0,1,163,133a18.43,18.43,0,0,1,3.76-6.38,16.35,16.35,0,0,1,5.77-4,18.88,18.88,0,0,1,7.4-1.41,19.3,19.3,0,0,1,7.44,1.4,16.21,16.21,0,0,1,5.78,4,18.43,18.43,0,0,1,3.76,6.38A24.78,24.78,0,0,1,198.21,141.39Zm-.74,0a24.69,24.69,0,0,0-1.29-8.26,17.81,17.81,0,0,0-3.6-6.19,15.34,15.34,0,0,0-5.56-3.89,18.39,18.39,0,0,0-7.14-1.35,18.16,18.16,0,0,0-7.08,1.35,15.38,15.38,0,0,0-5.55,3.89,17.91,17.91,0,0,0-3.65,6.19,26.47,26.47,0,0,0,0,16.51,17.77,17.77,0,0,0,3.65,6.16,15.61,15.61,0,0,0,5.55,3.88,18.15,18.15,0,0,0,7.08,1.34,18.38,18.38,0,0,0,7.14-1.34,15.56,15.56,0,0,0,5.56-3.88,17.68,17.68,0,0,0,3.6-6.16A24.59,24.59,0,0,0,197.47,141.39Z"/><path class="cls-7" d="M236.62,161.08a32.56,32.56,0,0,0,4.4-.27,22.91,22.91,0,0,0,3.66-.79,21.66,21.66,0,0,0,3.21-1.27,32.38,32.38,0,0,0,3-1.72v-12.3h-8.88c-.23,0-.34-.09-.34-.28v-.29h9.84v13.13a30,30,0,0,1-3,1.8,22,22,0,0,1-3.36,1.37,25.3,25.3,0,0,1-3.91.87,31.29,31.29,0,0,1-4.62.31,20.45,20.45,0,0,1-7.75-1.4,16.43,16.43,0,0,1-6-4,18.27,18.27,0,0,1-3.83-6.38,26.78,26.78,0,0,1,0-16.85,17.83,17.83,0,0,1,3.9-6.38,17.18,17.18,0,0,1,6.16-4,22.06,22.06,0,0,1,8.1-1.41,28.07,28.07,0,0,1,4,.27,17.54,17.54,0,0,1,3.41.83,16,16,0,0,1,3,1.42,18.47,18.47,0,0,1,2.72,2l-.09.14a.31.31,0,0,1-.25.15c-.15,0-.47-.23-1-.67a12.09,12.09,0,0,0-2.22-1.47,18.86,18.86,0,0,0-3.84-1.47,21.56,21.56,0,0,0-5.77-.67,21.35,21.35,0,0,0-7.78,1.35,16.2,16.2,0,0,0-5.94,3.89,17.3,17.3,0,0,0-3.79,6.19,26.41,26.41,0,0,0,0,16.52,17.43,17.43,0,0,0,3.72,6.2,16.14,16.14,0,0,0,5.75,3.89A19.93,19.93,0,0,0,236.62,161.08Z"/><path class="cls-7" d="M297.27,141.39a24.69,24.69,0,0,1-1.35,8.43,18.3,18.3,0,0,1-3.76,6.35,16.32,16.32,0,0,1-5.78,4,19.3,19.3,0,0,1-7.44,1.4,19.06,19.06,0,0,1-7.4-1.4,16.28,16.28,0,0,1-5.77-4,18.3,18.3,0,0,1-3.76-6.35A26.93,26.93,0,0,1,262,133a18.43,18.43,0,0,1,3.76-6.38,16.35,16.35,0,0,1,5.77-4,18.88,18.88,0,0,1,7.4-1.41,19.3,19.3,0,0,1,7.44,1.4,16.21,16.21,0,0,1,5.78,4,18.43,18.43,0,0,1,3.76,6.38A24.78,24.78,0,0,1,297.27,141.39Zm-.74,0a24.69,24.69,0,0,0-1.29-8.26,18,18,0,0,0-3.6-6.19,15.34,15.34,0,0,0-5.56-3.89,18.39,18.39,0,0,0-7.14-1.35,18.16,18.16,0,0,0-7.08,1.35,15.38,15.38,0,0,0-5.55,3.89,17.91,17.91,0,0,0-3.65,6.19,26.47,26.47,0,0,0,0,16.51,17.77,17.77,0,0,0,3.65,6.16,15.61,15.61,0,0,0,5.55,3.88,18.15,18.15,0,0,0,7.08,1.34,18.38,18.38,0,0,0,7.14-1.34,15.56,15.56,0,0,0,5.56-3.88,17.83,17.83,0,0,0,3.6-6.16A24.59,24.59,0,0,0,296.53,141.39Z"/><path class="cls-7" d="M342.36,141.39a24.69,24.69,0,0,1-1.35,8.43,18.3,18.3,0,0,1-3.76,6.35,16.27,16.27,0,0,1-5.79,4,20.34,20.34,0,0,1-14.83,0,16.28,16.28,0,0,1-5.77-4,18.3,18.3,0,0,1-3.76-6.35,26.93,26.93,0,0,1,0-16.84,18.43,18.43,0,0,1,3.76-6.38,16.35,16.35,0,0,1,5.77-4,18.86,18.86,0,0,1,7.39-1.41,19.22,19.22,0,0,1,7.44,1.4,16.17,16.17,0,0,1,5.79,4A18.43,18.43,0,0,1,341,133,24.78,24.78,0,0,1,342.36,141.39Zm-.74,0a24.69,24.69,0,0,0-1.29-8.26,18,18,0,0,0-3.6-6.19,15.34,15.34,0,0,0-5.56-3.89A18.4,18.4,0,0,0,324,121.7a18.14,18.14,0,0,0-7.07,1.35,15.38,15.38,0,0,0-5.55,3.89,17.91,17.91,0,0,0-3.65,6.19,26.47,26.47,0,0,0,0,16.51,17.77,17.77,0,0,0,3.65,6.16,15.61,15.61,0,0,0,5.55,3.88A18.14,18.14,0,0,0,324,161a18.4,18.4,0,0,0,7.15-1.34,15.56,15.56,0,0,0,5.56-3.88,17.83,17.83,0,0,0,3.6-6.16A24.59,24.59,0,0,0,341.62,141.39Z"/><path class="cls-7" d="M385.86,141.39a24.42,24.42,0,0,1-1.34,8.37,17.68,17.68,0,0,1-3.77,6.23,15.82,15.82,0,0,1-5.78,3.87,20,20,0,0,1-7.44,1.33H353.39v-39.6h14.14a20,20,0,0,1,7.44,1.33,16,16,0,0,1,5.78,3.88,17.64,17.64,0,0,1,3.77,6.22A24.42,24.42,0,0,1,385.86,141.39Zm-.74,0a24.36,24.36,0,0,0-1.28-8.19,17.15,17.15,0,0,0-3.61-6,15.19,15.19,0,0,0-5.56-3.73,19.34,19.34,0,0,0-7.14-1.27H354.07v38.47h13.46a19.34,19.34,0,0,0,7.14-1.28,15.07,15.07,0,0,0,5.56-3.73,17.06,17.06,0,0,0,3.61-6A24.28,24.28,0,0,0,385.12,141.39Z"/></g></g></svg>